<svg viewBox="0 0 1300 900" xmlns="http://www.w3.org/2000/svg" width="1300" height="900">
  <title>Architecture — Snake AI Decision Tree (XGBoost + DAgger)</title>
  <defs>
    <style>
      @import url('https://fonts.googleapis.com/css2?family=Inter:wght@400;500;600;700&amp;display=swap');
      text { font-family: 'Inter', 'Segoe UI', system-ui, sans-serif; }
    </style>
    <filter id="shadow-sm" x="-5%" y="-5%" width="115%" height="125%">
      <feDropShadow dx="0" dy="2" stdDeviation="3" flood-color="#00000018"/>
    </filter>
    <filter id="shadow-md" x="-8%" y="-8%" width="120%" height="130%">
      <feDropShadow dx="0" dy="4" stdDeviation="8" flood-color="#00000020"/>
    </filter>
    <marker id="arrow" markerWidth="10" markerHeight="7" refX="9" refY="3.5" orient="auto">
      <polygon points="0 0, 10 3.5, 0 7" fill="#94A3B8"/>
    </marker>
    <marker id="arrow-indigo" markerWidth="10" markerHeight="7" refX="9" refY="3.5" orient="auto">
      <polygon points="0 0, 10 3.5, 0 7" fill="#6366F1"/>
    </marker>
    <marker id="arrow-emerald" markerWidth="10" markerHeight="7" refX="9" refY="3.5" orient="auto">
      <polygon points="0 0, 10 3.5, 0 7" fill="#10B981"/>
    </marker>
    <marker id="arrow-amber" markerWidth="10" markerHeight="7" refX="9" refY="3.5" orient="auto">
      <polygon points="0 0, 10 3.5, 0 7" fill="#F59E0B"/>
    </marker>
    <marker id="arrow-violet" markerWidth="10" markerHeight="7" refX="9" refY="3.5" orient="auto">
      <polygon points="0 0, 10 3.5, 0 7" fill="#8B5CF6"/>
    </marker>
    <pattern id="grid" width="24" height="24" patternUnits="userSpaceOnUse">
      <path d="M 24 0 L 0 0 0 24" fill="none" stroke="#E2E8F0" stroke-width="0.5"/>
    </pattern>
    <linearGradient id="grad-title" x1="0%" y1="0%" x2="100%" y2="0%">
      <stop offset="0%" style="stop-color:#6366F1"/>
      <stop offset="100%" style="stop-color:#8B5CF6"/>
    </linearGradient>
  </defs>

  <!-- Background -->
  <rect width="1300" height="900" fill="#FFFFFF"/>
  <rect width="1300" height="900" fill="url(#grid)" opacity="0.5"/>

  <!-- ══════════════════════════════
       TITLE
  ══════════════════════════════ -->
  <text x="40" y="44" font-size="18" font-weight="700" fill="#1E293B">Architecture — Snake AI Decision Tree (XGBoost + DAgger)</text>
  <text x="40" y="64" font-size="12" font-weight="400" fill="#64748B">Imitation Learning pipeline: Oracle → ReplayBuffer → XGBoost → DAgger refinement</text>
  <line x1="40" y1="72" x2="620" y2="72" stroke="url(#grad-title)" stroke-width="2.5" stroke-linecap="round"/>

  <!-- ══════════════════════════════
       ROW 1 — INPUT FEATURES (y=88 → y=290)
  ══════════════════════════════ -->
  <!-- Outer group container -->
  <rect x="40" y="88" width="1220" height="202" rx="14" fill="#F59E0B1A" stroke="#F59E0B50" stroke-width="1.5" stroke-dasharray="6,4"/>
  <rect x="52" y="76" width="178" height="24" rx="12" fill="#F59E0B"/>
  <text x="141" y="92" font-size="11" font-weight="600" fill="#FFFFFF" text-anchor="middle">26 INPUT FEATURES</text>

  <!-- Group 1: Walls/Body — x=58, y=108, w=258, h=160 -->
  <rect x="58" y="108" width="258" height="162" rx="10" fill="#FFFFFF" stroke="#E2E8F0" stroke-width="1.5" filter="url(#shadow-sm)"/>
  <rect x="58" y="108" width="4" height="162" rx="2" fill="#F59E0B"/>
  <text x="78" y="130" font-size="12" font-weight="600" fill="#92400E">Dist. Murs / Corps</text>
  <text x="78" y="148" font-size="10" font-weight="400" fill="#64748B">8 directions</text>
  <rect x="78" y="158" width="58" height="16" rx="8" fill="#FFFBEB" stroke="#F59E0B50" stroke-width="1"/>
  <text x="107" y="169" font-size="9" font-weight="500" fill="#92400E" text-anchor="middle">N · NE · E</text>
  <rect x="142" y="158" width="58" height="16" rx="8" fill="#FFFBEB" stroke="#F59E0B50" stroke-width="1"/>
  <text x="171" y="169" font-size="9" font-weight="500" fill="#92400E" text-anchor="middle">SE · S · SW</text>
  <rect x="78" y="180" width="58" height="16" rx="8" fill="#FFFBEB" stroke="#F59E0B50" stroke-width="1"/>
  <text x="107" y="191" font-size="9" font-weight="500" fill="#92400E" text-anchor="middle">W · NW</text>
  <text x="78" y="215" font-size="10" font-weight="400" fill="#94A3B8">dist. normalisée [0..1]</text>
  <rect x="78" y="228" width="80" height="18" rx="9" fill="#FFFBEB"/>
  <text x="118" y="240" font-size="10" font-weight="600" fill="#92400E" text-anchor="middle">idx 0–7</text>
  <rect x="168" y="228" width="80" height="18" rx="9" fill="#1E293B"/>
  <text x="208" y="240" font-size="10" font-weight="700" fill="#FFFFFF" text-anchor="middle">8 features</text>

  <!-- Group 2: Food Distance — x=326, y=108 -->
  <rect x="326" y="108" width="258" height="162" rx="10" fill="#FFFFFF" stroke="#E2E8F0" stroke-width="1.5" filter="url(#shadow-sm)"/>
  <rect x="326" y="108" width="4" height="162" rx="2" fill="#F43F5E"/>
  <text x="346" y="130" font-size="12" font-weight="600" fill="#9F1239">Dist. Nourriture</text>
  <text x="346" y="148" font-size="10" font-weight="400" fill="#64748B">8 directions</text>
  <rect x="346" y="158" width="58" height="16" rx="8" fill="#FFF1F2" stroke="#F43F5E50" stroke-width="1"/>
  <text x="375" y="169" font-size="9" font-weight="500" fill="#9F1239" text-anchor="middle">N · NE · E</text>
  <rect x="410" y="158" width="58" height="16" rx="8" fill="#FFF1F2" stroke="#F43F5E50" stroke-width="1"/>
  <text x="439" y="169" font-size="9" font-weight="500" fill="#9F1239" text-anchor="middle">SE · S · SW</text>
  <rect x="346" y="180" width="58" height="16" rx="8" fill="#FFF1F2" stroke="#F43F5E50" stroke-width="1"/>
  <text x="375" y="191" font-size="9" font-weight="500" fill="#9F1239" text-anchor="middle">W · NW</text>
  <text x="346" y="215" font-size="10" font-weight="400" fill="#94A3B8">0 si hors direction</text>
  <rect x="346" y="228" width="80" height="18" rx="9" fill="#FFF1F2"/>
  <text x="386" y="240" font-size="10" font-weight="600" fill="#9F1239" text-anchor="middle">idx 8–15</text>
  <rect x="436" y="228" width="80" height="18" rx="9" fill="#1E293B"/>
  <text x="476" y="240" font-size="10" font-weight="700" fill="#FFFFFF" text-anchor="middle">8 features</text>

  <!-- Group 3: Deltas + Danger — x=594, y=108 -->
  <rect x="594" y="108" width="258" height="162" rx="10" fill="#FFFFFF" stroke="#E2E8F0" stroke-width="1.5" filter="url(#shadow-sm)"/>
  <rect x="594" y="108" width="4" height="162" rx="2" fill="#10B981"/>
  <text x="614" y="130" font-size="12" font-weight="600" fill="#065F46">Delta + Danger imm.</text>
  <text x="614" y="148" font-size="10" font-weight="400" fill="#64748B">6 features</text>
  <rect x="614" y="158" width="90" height="16" rx="8" fill="#ECFDF5" stroke="#10B98150" stroke-width="1"/>
  <text x="659" y="169" font-size="9" font-weight="500" fill="#065F46" text-anchor="middle">dx_norm · dy_norm</text>
  <text x="614" y="198" font-size="9" font-weight="400" fill="#64748B">Danger immédiat (1 step)</text>
  <rect x="614" y="207" width="52" height="16" rx="8" fill="#ECFDF5" stroke="#10B98150" stroke-width="1"/>
  <text x="640" y="218" font-size="9" font-weight="500" fill="#065F46" text-anchor="middle">N · E</text>
  <rect x="672" y="207" width="52" height="16" rx="8" fill="#ECFDF5" stroke="#10B98150" stroke-width="1"/>
  <text x="698" y="218" font-size="9" font-weight="500" fill="#065F46" text-anchor="middle">S · W</text>
  <rect x="614" y="228" width="80" height="18" rx="9" fill="#ECFDF5"/>
  <text x="654" y="240" font-size="10" font-weight="600" fill="#065F46" text-anchor="middle">idx 16–21</text>
  <rect x="704" y="228" width="80" height="18" rx="9" fill="#1E293B"/>
  <text x="744" y="240" font-size="10" font-weight="700" fill="#FFFFFF" text-anchor="middle">6 features</text>

  <!-- Group 4: Direction one-hot — x=862, y=108 -->
  <rect x="862" y="108" width="258" height="162" rx="10" fill="#FFFFFF" stroke="#E2E8F0" stroke-width="1.5" filter="url(#shadow-sm)"/>
  <rect x="862" y="108" width="4" height="162" rx="2" fill="#6366F1"/>
  <text x="882" y="130" font-size="12" font-weight="600" fill="#3730A3">Direction (one-hot)</text>
  <text x="882" y="148" font-size="10" font-weight="400" fill="#64748B">4 features</text>
  <rect x="882" y="158" width="58" height="16" rx="8" fill="#EEF2FF" stroke="#6366F150" stroke-width="1"/>
  <text x="911" y="169" font-size="9" font-weight="500" fill="#3730A3" text-anchor="middle">dir_UP</text>
  <rect x="946" y="158" width="64" height="16" rx="8" fill="#EEF2FF" stroke="#6366F150" stroke-width="1"/>
  <text x="978" y="169" font-size="9" font-weight="500" fill="#3730A3" text-anchor="middle">dir_RIGHT</text>
  <rect x="882" y="180" width="66" height="16" rx="8" fill="#EEF2FF" stroke="#6366F150" stroke-width="1"/>
  <text x="915" y="191" font-size="9" font-weight="500" fill="#3730A3" text-anchor="middle">dir_DOWN</text>
  <rect x="954" y="180" width="66" height="16" rx="8" fill="#EEF2FF" stroke="#6366F150" stroke-width="1"/>
  <text x="987" y="191" font-size="9" font-weight="500" fill="#3730A3" text-anchor="middle">dir_LEFT</text>
  <text x="882" y="215" font-size="10" font-weight="400" fill="#94A3B8">1.0 actif / 0.0 inactif</text>
  <rect x="882" y="228" width="80" height="18" rx="9" fill="#EEF2FF"/>
  <text x="922" y="240" font-size="10" font-weight="600" fill="#3730A3" text-anchor="middle">idx 22–25</text>
  <rect x="972" y="228" width="80" height="18" rx="9" fill="#1E293B"/>
  <text x="1012" y="240" font-size="10" font-weight="700" fill="#FFFFFF" text-anchor="middle">4 features</text>

  <!-- Arrow: Features → Pipeline -->
  <line x1="450" y1="290" x2="450" y2="322" stroke="#94A3B8" stroke-width="1.5" marker-end="url(#arrow)"/>

  <!-- ══════════════════════════════
       ROW 2 — TRAINING PIPELINE (y=328 → y=548) + XAI SUITE (right)
  ══════════════════════════════ -->
  <!-- Training Pipeline group container -->
  <rect x="40" y="328" width="840" height="218" rx="14" fill="#10B9811A" stroke="#10B98150" stroke-width="1.5" stroke-dasharray="6,4"/>
  <rect x="52" y="316" width="180" height="24" rx="12" fill="#10B981"/>
  <text x="142" y="332" font-size="11" font-weight="600" fill="#FFFFFF" text-anchor="middle">PIPELINE D'ENTRAÎNEMENT</text>

  <!-- Phase 1: Oracle Collection -->
  <rect x="60" y="352" width="178" height="178" rx="10" fill="#FFFFFF" stroke="#E2E8F0" stroke-width="1.5" filter="url(#shadow-sm)"/>
  <rect x="60" y="352" width="178" height="28" rx="10" fill="#10B981"/>
  <rect x="60" y="370" width="178" height="10" rx="0" fill="#10B981"/>
  <text x="149" y="371" font-size="11" font-weight="600" fill="#FFFFFF" text-anchor="middle">Phase 1</text>
  <text x="149" y="400" font-size="11" font-weight="600" fill="#065F46" text-anchor="middle">Oracle Collection</text>
  <text x="149" y="418" font-size="10" font-weight="400" fill="#64748B" text-anchor="middle">500 parties</text>
  <text x="149" y="434" font-size="10" font-weight="400" fill="#64748B" text-anchor="middle">GreedyOracle agent</text>
  <line x1="80" y1="446" x2="218" y2="446" stroke="#E2E8F0" stroke-width="1"/>
  <text x="149" y="464" font-size="10" font-weight="600" fill="#065F46" text-anchor="middle">ReplayBuffer</text>
  <text x="149" y="480" font-size="9" font-weight="400" fill="#94A3B8" text-anchor="middle">max 300k samples</text>
  <rect x="80" y="492" width="118" height="18" rx="9" fill="#ECFDF5"/>
  <text x="139" y="504" font-size="10" font-weight="600" fill="#065F46" text-anchor="middle">~200k steps/phase</text>

  <!-- Arrow Phase 1 → 2 -->
  <line x1="238" y1="441" x2="260" y2="441" stroke="#10B981" stroke-width="1.5" marker-end="url(#arrow-emerald)"/>

  <!-- Phase 2: Initial Training -->
  <rect x="260" y="352" width="178" height="178" rx="10" fill="#FFFFFF" stroke="#E2E8F0" stroke-width="1.5" filter="url(#shadow-sm)"/>
  <rect x="260" y="352" width="178" height="28" rx="10" fill="#6366F1"/>
  <rect x="260" y="370" width="178" height="10" rx="0" fill="#6366F1"/>
  <text x="349" y="371" font-size="11" font-weight="600" fill="#FFFFFF" text-anchor="middle">Phase 2</text>
  <text x="349" y="400" font-size="11" font-weight="600" fill="#3730A3" text-anchor="middle">Initial Training</text>
  <text x="349" y="418" font-size="10" font-weight="400" fill="#64748B" text-anchor="middle">XGBoost, 3-fold CV</text>
  <text x="349" y="434" font-size="10" font-weight="400" fill="#64748B" text-anchor="middle">Early stopping: 30 rounds</text>
  <line x1="280" y1="446" x2="418" y2="446" stroke="#E2E8F0" stroke-width="1"/>
  <text x="349" y="464" font-size="10" font-weight="400" fill="#64748B" text-anchor="middle">10% val split</text>
  <text x="349" y="480" font-size="10" font-weight="400" fill="#64748B" text-anchor="middle">metric: merror</text>
  <rect x="280" y="492" width="118" height="18" rx="9" fill="#EEF2FF"/>
  <text x="339" y="504" font-size="10" font-weight="600" fill="#3730A3" text-anchor="middle">modèle initial</text>

  <!-- Arrow Phase 2 → 3 -->
  <line x1="438" y1="441" x2="460" y2="441" stroke="#10B981" stroke-width="1.5" marker-end="url(#arrow-emerald)"/>

  <!-- Phase 3: DAgger-light -->
  <rect x="460" y="352" width="178" height="178" rx="10" fill="#FFFFFF" stroke="#E2E8F0" stroke-width="1.5" filter="url(#shadow-sm)"/>
  <rect x="460" y="352" width="178" height="28" rx="10" fill="#8B5CF6"/>
  <rect x="460" y="370" width="178" height="10" rx="0" fill="#8B5CF6"/>
  <text x="549" y="371" font-size="11" font-weight="600" fill="#FFFFFF" text-anchor="middle">Phase 3</text>
  <text x="549" y="400" font-size="11" font-weight="600" fill="#5B21B6" text-anchor="middle">DAgger-light</text>
  <text x="549" y="418" font-size="10" font-weight="400" fill="#64748B" text-anchor="middle">8 rounds, 50 parties/round</text>
  <text x="549" y="434" font-size="10" font-weight="400" fill="#64748B" text-anchor="middle">β₀=0.8 · décroît ×0.85</text>
  <line x1="480" y1="446" x2="618" y2="446" stroke="#E2E8F0" stroke-width="1"/>
  <text x="549" y="462" font-size="10" font-weight="400" fill="#64748B" text-anchor="middle">floor β = 5%</text>
  <text x="549" y="476" font-size="9" font-weight="400" fill="#94A3B8" text-anchor="middle">label = oracle (toujours)</text>
  <rect x="476" y="490" width="146" height="18" rx="9" fill="#F5F3FF"/>
  <text x="549" y="502" font-size="10" font-weight="600" fill="#5B21B6" text-anchor="middle">réentraîne / 2 rounds</text>

  <!-- Arrow Phase 3 → 4 -->
  <line x1="638" y1="441" x2="660" y2="441" stroke="#10B981" stroke-width="1.5" marker-end="url(#arrow-emerald)"/>

  <!-- Phase 4: Evaluation -->
  <rect x="660" y="352" width="178" height="178" rx="10" fill="#FFFFFF" stroke="#E2E8F0" stroke-width="1.5" filter="url(#shadow-sm)"/>
  <rect x="660" y="352" width="178" height="28" rx="10" fill="#F59E0B"/>
  <rect x="660" y="370" width="178" height="10" rx="0" fill="#F59E0B"/>
  <text x="749" y="371" font-size="11" font-weight="600" fill="#FFFFFF" text-anchor="middle">Phase 4</text>
  <text x="749" y="400" font-size="11" font-weight="600" fill="#92400E" text-anchor="middle">Évaluation</text>
  <text x="749" y="418" font-size="10" font-weight="400" fill="#64748B" text-anchor="middle">100 parties</text>
  <text x="749" y="434" font-size="10" font-weight="400" fill="#64748B" text-anchor="middle">β = 0 (agent pur)</text>
  <line x1="680" y1="446" x2="818" y2="446" stroke="#E2E8F0" stroke-width="1"/>
  <text x="749" y="462" font-size="10" font-weight="400" fill="#64748B" text-anchor="middle">mean · std · max</text>
  <text x="749" y="476" font-size="10" font-weight="400" fill="#64748B" text-anchor="middle">median scores</text>
  <rect x="680" y="490" width="118" height="18" rx="9" fill="#FFFBEB"/>
  <text x="739" y="502" font-size="10" font-weight="600" fill="#92400E" text-anchor="middle">score max obs: 31</text>

  <!-- XAI SUITE group -->
  <rect x="900" y="328" width="360" height="218" rx="14" fill="#06B6D41A" stroke="#06B6D450" stroke-width="1.5" stroke-dasharray="6,4"/>
  <rect x="912" y="316" width="112" height="24" rx="12" fill="#06B6D4"/>
  <text x="968" y="332" font-size="11" font-weight="600" fill="#FFFFFF" text-anchor="middle">XAI SUITE</text>
  <!-- XAI items -->
  <rect x="920" y="352" width="320" height="44" rx="8" fill="#FFFFFF" stroke="#E2E8F0" stroke-width="1.5" filter="url(#shadow-sm)"/>
  <rect x="920" y="352" width="4" height="44" rx="2" fill="#06B6D4"/>
  <text x="940" y="372" font-size="12" font-weight="600" fill="#164E63">Permutation Importance</text>
  <text x="940" y="388" font-size="10" font-weight="400" fill="#64748B">Impact par feature si mélangée</text>

  <rect x="920" y="406" width="320" height="44" rx="8" fill="#FFFFFF" stroke="#E2E8F0" stroke-width="1.5" filter="url(#shadow-sm)"/>
  <rect x="920" y="406" width="4" height="44" rx="2" fill="#06B6D4"/>
  <text x="940" y="426" font-size="12" font-weight="600" fill="#164E63">XGBoost Importance</text>
  <text x="940" y="442" font-size="10" font-weight="400" fill="#64748B">gain · weight · cover</text>

  <rect x="920" y="460" width="152" height="44" rx="8" fill="#FFFFFF" stroke="#E2E8F0" stroke-width="1.5" filter="url(#shadow-sm)"/>
  <rect x="920" y="460" width="4" height="44" rx="2" fill="#8B5CF6"/>
  <text x="940" y="480" font-size="12" font-weight="600" fill="#5B21B6">SHAP Values</text>
  <text x="940" y="496" font-size="10" font-weight="400" fill="#64748B">explicabilité locale</text>

  <rect x="1082" y="460" width="158" height="44" rx="8" fill="#FFFFFF" stroke="#E2E8F0" stroke-width="1.5" filter="url(#shadow-sm)"/>
  <rect x="1082" y="460" width="4" height="44" rx="2" fill="#8B5CF6"/>
  <text x="1102" y="480" font-size="12" font-weight="600" fill="#5B21B6">Feature-Action</text>
  <text x="1102" y="496" font-size="10" font-weight="400" fill="#64748B">corrélation features↔dir</text>

  <!-- Arrow: Pipeline → XGBoost Model -->
  <line x1="450" y1="546" x2="450" y2="578" stroke="#94A3B8" stroke-width="1.5" marker-end="url(#arrow)"/>

  <!-- ══════════════════════════════
       ROW 3 — XGBOOST MODEL (y=584 → y=840) + OUTPUT (right)
  ══════════════════════════════ -->
  <!-- XGBoost Model group -->
  <rect x="40" y="584" width="840" height="250" rx="14" fill="#6366F11A" stroke="#6366F150" stroke-width="1.5" stroke-dasharray="6,4"/>
  <rect x="52" y="572" width="150" height="24" rx="12" fill="#6366F1"/>
  <text x="127" y="588" font-size="11" font-weight="600" fill="#FFFFFF" text-anchor="middle">MODÈLE XGBOOST</text>

  <!-- Architecture block -->
  <rect x="60" y="604" width="260" height="210" rx="10" fill="#FFFFFF" stroke="#E2E8F0" stroke-width="1.5" filter="url(#shadow-sm)"/>
  <rect x="60" y="604" width="260" height="36" rx="10" fill="#EEF2FF" stroke="#6366F1" stroke-width="1.5"/>
  <rect x="60" y="628" width="260" height="12" rx="0" fill="#EEF2FF"/>
  <text x="190" y="627" font-size="12" font-weight="700" fill="#3730A3" text-anchor="middle">Architecture des arbres</text>
  <text x="80" y="658" font-size="11" font-weight="600" fill="#1E293B">400 rounds × 4 classes</text>
  <text x="80" y="674" font-size="10" font-weight="400" fill="#64748B">= 1600 arbres au total</text>
  <text x="80" y="696" font-size="11" font-weight="600" fill="#1E293B">Max depth = 8</text>
  <text x="80" y="712" font-size="10" font-weight="400" fill="#64748B">~50–120 nœuds / arbre</text>
  <line x1="80" y1="722" x2="296" y2="722" stroke="#E2E8F0" stroke-width="1"/>
  <text x="80" y="738" font-size="10" font-weight="600" fill="#3730A3">Softmax multi-classe</text>
  <text x="80" y="753" font-size="9" font-weight="400" fill="#94A3B8">metric: merror</text>
  <rect x="80" y="764" width="80" height="18" rx="9" fill="#EEF2FF"/>
  <text x="120" y="776" font-size="10" font-weight="600" fill="#3730A3" text-anchor="middle">CUDA hist</text>
  <rect x="170" y="764" width="100" height="18" rx="9" fill="#F8FAFC" stroke="#CBD5E1" stroke-width="1"/>
  <text x="220" y="776" font-size="10" font-weight="500" fill="#64748B" text-anchor="middle">CPU fallback</text>

  <!-- Hyperparameters block -->
  <rect x="340" y="604" width="270" height="210" rx="10" fill="#FFFFFF" stroke="#E2E8F0" stroke-width="1.5" filter="url(#shadow-sm)"/>
  <rect x="340" y="604" width="270" height="36" rx="10" fill="#F5F3FF" stroke="#8B5CF6" stroke-width="1.5"/>
  <rect x="340" y="628" width="270" height="12" rx="0" fill="#F5F3FF"/>
  <text x="475" y="627" font-size="12" font-weight="700" fill="#5B21B6" text-anchor="middle">Hyperparamètres</text>
  <!-- param rows -->
  <text x="360" y="656" font-size="10" font-weight="500" fill="#1E293B">learning_rate</text>
  <rect x="470" y="644" width="60" height="16" rx="8" fill="#F5F3FF"/>
  <text x="500" y="655" font-size="10" font-weight="600" fill="#5B21B6" text-anchor="middle">0.05</text>
  <text x="360" y="676" font-size="10" font-weight="500" fill="#1E293B">subsample</text>
  <rect x="470" y="664" width="60" height="16" rx="8" fill="#F5F3FF"/>
  <text x="500" y="675" font-size="10" font-weight="600" fill="#5B21B6" text-anchor="middle">0.85</text>
  <text x="360" y="696" font-size="10" font-weight="500" fill="#1E293B">colsample_bytree</text>
  <rect x="470" y="684" width="60" height="16" rx="8" fill="#F5F3FF"/>
  <text x="500" y="695" font-size="10" font-weight="600" fill="#5B21B6" text-anchor="middle">0.85</text>
  <text x="360" y="716" font-size="10" font-weight="500" fill="#1E293B">min_child_weight</text>
  <rect x="470" y="704" width="60" height="16" rx="8" fill="#F5F3FF"/>
  <text x="500" y="715" font-size="10" font-weight="600" fill="#5B21B6" text-anchor="middle">3</text>
  <text x="360" y="736" font-size="10" font-weight="500" fill="#1E293B">gamma</text>
  <rect x="470" y="724" width="60" height="16" rx="8" fill="#F5F3FF"/>
  <text x="500" y="735" font-size="10" font-weight="600" fill="#5B21B6" text-anchor="middle">0.1</text>
  <text x="360" y="756" font-size="10" font-weight="500" fill="#1E293B">reg_alpha (L1)</text>
  <rect x="470" y="744" width="60" height="16" rx="8" fill="#F5F3FF"/>
  <text x="500" y="755" font-size="10" font-weight="600" fill="#5B21B6" text-anchor="middle">0.05</text>
  <text x="360" y="776" font-size="10" font-weight="500" fill="#1E293B">reg_lambda (L2)</text>
  <rect x="470" y="764" width="60" height="16" rx="8" fill="#F5F3FF"/>
  <text x="500" y="775" font-size="10" font-weight="600" fill="#5B21B6" text-anchor="middle">1.5</text>

  <!-- Training time block -->
  <rect x="630" y="604" width="230" height="210" rx="10" fill="#FFFFFF" stroke="#E2E8F0" stroke-width="1.5" filter="url(#shadow-sm)"/>
  <rect x="630" y="604" width="230" height="36" rx="10" fill="#ECFEFF" stroke="#06B6D4" stroke-width="1.5"/>
  <rect x="630" y="628" width="230" height="12" rx="0" fill="#ECFEFF"/>
  <text x="745" y="627" font-size="12" font-weight="700" fill="#164E63" text-anchor="middle">Perf &amp; Mémoire</text>
  <text x="650" y="658" font-size="11" font-weight="600" fill="#0E7490">Durée entraînement</text>
  <text x="650" y="675" font-size="10" font-weight="400" fill="#64748B">GPU (CUDA):  6–10 min</text>
  <text x="650" y="691" font-size="10" font-weight="400" fill="#64748B">CPU (sklearn): 20–40 min</text>
  <line x1="650" y1="702" x2="840" y2="702" stroke="#E2E8F0" stroke-width="1"/>
  <text x="650" y="718" font-size="11" font-weight="600" fill="#0E7490">Replay Buffer</text>
  <text x="650" y="734" font-size="10" font-weight="400" fill="#64748B">~200 MB (listes Python)</text>
  <text x="650" y="750" font-size="10" font-weight="400" fill="#64748B">max 300k samples</text>
  <line x1="650" y1="760" x2="840" y2="760" stroke="#E2E8F0" stroke-width="1"/>
  <text x="650" y="776" font-size="11" font-weight="600" fill="#0E7490">Grille de jeu</text>
  <text x="650" y="792" font-size="10" font-weight="400" fill="#64748B">16 col × 8 lignes = 128</text>

  <!-- Arrow: XGBoost → Output -->
  <line x1="880" y1="709" x2="902" y2="709" stroke="#94A3B8" stroke-width="1.5" marker-end="url(#arrow)"/>

  <!-- OUTPUT group -->
  <rect x="900" y="584" width="360" height="250" rx="14" fill="#F43F5E1A" stroke="#F43F5E50" stroke-width="1.5" stroke-dasharray="6,4"/>
  <rect x="912" y="572" width="78" height="24" rx="12" fill="#F43F5E"/>
  <text x="951" y="588" font-size="11" font-weight="600" fill="#FFFFFF" text-anchor="middle">SORTIE</text>

  <!-- 4 classes -->
  <rect x="920" y="604" width="320" height="60" rx="10" fill="#FFFFFF" stroke="#E2E8F0" stroke-width="1.5" filter="url(#shadow-sm)"/>
  <rect x="920" y="604" width="4" height="60" rx="2" fill="#F43F5E"/>
  <text x="940" y="624" font-size="12" font-weight="600" fill="#9F1239">Classification 4 classes</text>
  <rect x="940" y="632" width="42" height="16" rx="8" fill="#FFF1F2"/>
  <text x="961" y="643" font-size="9" font-weight="600" fill="#9F1239" text-anchor="middle">0=UP</text>
  <rect x="990" y="632" width="55" height="16" rx="8" fill="#FFF1F2"/>
  <text x="1017" y="643" font-size="9" font-weight="600" fill="#9F1239" text-anchor="middle">1=RIGHT</text>
  <rect x="1053" y="632" width="55" height="16" rx="8" fill="#FFF1F2"/>
  <text x="1080" y="643" font-size="9" font-weight="600" fill="#9F1239" text-anchor="middle">2=DOWN</text>
  <rect x="1116" y="632" width="50" height="16" rx="8" fill="#FFF1F2"/>
  <text x="1141" y="643" font-size="9" font-weight="600" fill="#9F1239" text-anchor="middle">3=LEFT</text>

  <!-- Safety override -->
  <rect x="920" y="676" width="320" height="54" rx="10" fill="#FFFFFF" stroke="#F59E0B" stroke-width="1.5" filter="url(#shadow-sm)"/>
  <rect x="920" y="676" width="4" height="54" rx="2" fill="#F59E0B"/>
  <text x="940" y="696" font-size="12" font-weight="600" fill="#92400E">Safety Override</text>
  <text x="940" y="713" font-size="10" font-weight="400" fill="#64748B">Ne jamais choisir la direction</text>
  <text x="940" y="727" font-size="10" font-weight="400" fill="#64748B">opposée → évite mort instantanée</text>

  <!-- DecisionTreeAgent block -->
  <rect x="920" y="742" width="320" height="72" rx="10" fill="#FFFFFF" stroke="#E2E8F0" stroke-width="1.5" filter="url(#shadow-sm)"/>
  <rect x="920" y="742" width="4" height="72" rx="2" fill="#6366F1"/>
  <text x="940" y="762" font-size="12" font-weight="600" fill="#3730A3">DecisionTreeAgent</text>
  <text x="940" y="778" font-size="9" font-weight="400" fill="#64748B">get_action() · train() · save() · load()</text>
  <text x="940" y="793" font-size="9" font-weight="400" fill="#64748B">record_oracle_step() · stats()</text>
  <rect x="940" y="800" width="120" height="8" rx="4" fill="#EEF2FF"/>
  <text x="940" y="810" font-size="9" font-weight="400" fill="#94A3B8">snake_xgb_model.pkl</text>

  <!-- ══════════════════════════════
       LEGEND
  ══════════════════════════════ -->
  <g transform="translate(40, 852)">
    <rect width="860" height="36" rx="8" fill="#FFFFFF" stroke="#E2E8F0" stroke-width="1" filter="url(#shadow-sm)"/>
    <text x="16" y="14" font-size="9" font-weight="600" fill="#64748B">LÉGENDE</text>
    <rect x="80" y="4" width="12" height="12" rx="3" fill="#FEF3C7" stroke="#F59E0B" stroke-width="1"/>
    <text x="98" y="14" font-size="9" fill="#1E293B">Features d'entrée</text>
    <rect x="220" y="4" width="12" height="12" rx="3" fill="#ECFDF5" stroke="#10B981" stroke-width="1"/>
    <text x="238" y="14" font-size="9" fill="#1E293B">Pipeline d'entraînement</text>
    <rect x="390" y="4" width="12" height="12" rx="3" fill="#EEF2FF" stroke="#6366F1" stroke-width="1"/>
    <text x="408" y="14" font-size="9" fill="#1E293B">Modèle XGBoost</text>
    <rect x="530" y="4" width="12" height="12" rx="3" fill="#FFF1F2" stroke="#F43F5E" stroke-width="1"/>
    <text x="548" y="14" font-size="9" fill="#1E293B">Sortie / Décision</text>
    <rect x="660" y="4" width="12" height="12" rx="3" fill="#ECFEFF" stroke="#06B6D4" stroke-width="1"/>
    <text x="678" y="14" font-size="9" fill="#1E293B">XAI Suite</text>
    <text x="16" y="28" font-size="9" fill="#94A3B8">β = mixing ratio oracle/agent dans DAgger  ·  merror = multi-class error  ·  grille 16×8 = 128 cellules</text>
  </g>

</svg>
